<mxfile host="app.diagrams.net" modified="2024-03-04T16:37:20.593Z" agent="Mozilla/5.0 (Windows NT 10.0; Win64; x64) AppleWebKit/537.36 (KHTML, like Gecko) Chrome/122.0.0.0 Safari/537.36" etag="I8re7a6tLFM2SBCn5D-s" version="24.0.1" type="device">
  <diagram name="Página-1" id="vxy4y03Hu3a6biwGhC_E">
    <mxGraphModel dx="1050" dy="565" grid="1" gridSize="10" guides="1" tooltips="1" connect="1" arrows="1" fold="1" page="1" pageScale="1" pageWidth="827" pageHeight="1169" math="0" shadow="0">
      <root>
        <mxCell id="0" />
        <mxCell id="1" parent="0" />
        <mxCell id="cm8_BucixLacXURcW6G1-2" value="&lt;font style=&quot;font-size: 20px;&quot;&gt;X&amp;gt;Y&lt;/font&gt;" style="rhombus;whiteSpace=wrap;html=1;" vertex="1" parent="1">
          <mxGeometry x="339" y="150" width="150" height="150" as="geometry" />
        </mxCell>
        <mxCell id="cm8_BucixLacXURcW6G1-4" value="&lt;font style=&quot;font-size: 20px;&quot;&gt;Bloco&lt;/font&gt;" style="rounded=0;whiteSpace=wrap;html=1;" vertex="1" parent="1">
          <mxGeometry x="354" y="370" width="120" height="60" as="geometry" />
        </mxCell>
        <mxCell id="cm8_BucixLacXURcW6G1-5" value="" style="endArrow=classic;html=1;rounded=0;entryX=1;entryY=0.5;entryDx=0;entryDy=0;exitX=1;exitY=0.5;exitDx=0;exitDy=0;" edge="1" parent="1" source="cm8_BucixLacXURcW6G1-4" target="cm8_BucixLacXURcW6G1-2">
          <mxGeometry width="50" height="50" relative="1" as="geometry">
            <mxPoint x="390" y="310" as="sourcePoint" />
            <mxPoint x="440" y="260" as="targetPoint" />
            <Array as="points">
              <mxPoint x="520" y="400" />
              <mxPoint x="520" y="225" />
            </Array>
          </mxGeometry>
        </mxCell>
        <mxCell id="cm8_BucixLacXURcW6G1-6" value="&lt;font style=&quot;font-size: 20px;&quot;&gt;ínicio&lt;/font&gt;" style="strokeWidth=2;html=1;shape=mxgraph.flowchart.terminator;whiteSpace=wrap;" vertex="1" parent="1">
          <mxGeometry x="364" y="70" width="100" height="60" as="geometry" />
        </mxCell>
        <mxCell id="cm8_BucixLacXURcW6G1-7" value="" style="endArrow=classic;html=1;rounded=0;exitX=0.5;exitY=1;exitDx=0;exitDy=0;exitPerimeter=0;entryX=0.5;entryY=0;entryDx=0;entryDy=0;" edge="1" parent="1" source="cm8_BucixLacXURcW6G1-6" target="cm8_BucixLacXURcW6G1-2">
          <mxGeometry width="50" height="50" relative="1" as="geometry">
            <mxPoint x="390" y="300" as="sourcePoint" />
            <mxPoint x="440" y="250" as="targetPoint" />
          </mxGeometry>
        </mxCell>
        <mxCell id="cm8_BucixLacXURcW6G1-11" value="" style="endArrow=classic;html=1;rounded=0;exitX=0.5;exitY=1;exitDx=0;exitDy=0;entryX=0.5;entryY=0;entryDx=0;entryDy=0;" edge="1" parent="1" source="cm8_BucixLacXURcW6G1-2" target="cm8_BucixLacXURcW6G1-4">
          <mxGeometry relative="1" as="geometry">
            <mxPoint x="360" y="280" as="sourcePoint" />
            <mxPoint x="400" y="360" as="targetPoint" />
          </mxGeometry>
        </mxCell>
        <mxCell id="cm8_BucixLacXURcW6G1-12" value="SIM" style="edgeLabel;resizable=0;html=1;;align=center;verticalAlign=middle;" connectable="0" vertex="1" parent="cm8_BucixLacXURcW6G1-11">
          <mxGeometry relative="1" as="geometry" />
        </mxCell>
        <mxCell id="cm8_BucixLacXURcW6G1-13" value="" style="endArrow=classic;html=1;rounded=0;exitX=0;exitY=0.5;exitDx=0;exitDy=0;" edge="1" parent="1" source="cm8_BucixLacXURcW6G1-2">
          <mxGeometry relative="1" as="geometry">
            <mxPoint x="360" y="280" as="sourcePoint" />
            <mxPoint x="260" y="225" as="targetPoint" />
          </mxGeometry>
        </mxCell>
        <mxCell id="cm8_BucixLacXURcW6G1-14" value="NÃO" style="edgeLabel;resizable=0;html=1;;align=center;verticalAlign=middle;" connectable="0" vertex="1" parent="cm8_BucixLacXURcW6G1-13">
          <mxGeometry relative="1" as="geometry" />
        </mxCell>
        <mxCell id="cm8_BucixLacXURcW6G1-16" value="&lt;span style=&quot;font-size: 20px;&quot;&gt;Fim&lt;/span&gt;" style="strokeWidth=2;html=1;shape=mxgraph.flowchart.terminator;whiteSpace=wrap;" vertex="1" parent="1">
          <mxGeometry x="150" y="195" width="100" height="60" as="geometry" />
        </mxCell>
      </root>
    </mxGraphModel>
  </diagram>
</mxfile>
